<svg xmlns="http://www.w3.org/2000/svg" width="20" height="20.363" viewBox="0 0 20 20.363"><path d="M24.707,14.645a9.7,9.7,0,1,1-9.7-9.719,9.709,9.709,0,0,1,9.7,9.719" transform="translate(-5.009 -4.645)" fill="#fff"/><path d="M12.586,19.676a6.718,6.718,0,0,1-1.635.261A9.868,9.868,0,0,1,.34,12.573,9.862,9.862,0,0,1,.7,6.347,9.1,9.1,0,0,1,2.223,3.72,10.086,10.086,0,0,1,13.642.672,9.027,9.027,0,0,1,16.274,2.2a9.8,9.8,0,0,1,3.388,5.184,10.048,10.048,0,0,1-5.673,11.79,7.853,7.853,0,0,1-1.386.494Z" transform="translate(0 0)" fill="#fff"/><path d="M46.708,38.055a8.286,8.286,0,1,1-8.286-8.3,8.295,8.295,0,0,1,8.286,8.3" transform="translate(-28.422 -28.055)" fill="#00aa57"/><path d="M102.732,131.438l-4.034,4.05-2.408-2.413-1.235,1.237,3.642,3.65,5.277-5.279Z" transform="translate(-89.649 -123.944)" fill="#fff"/><rect width="20" height="20" transform="translate(0 0.363)" fill="none"/></svg>