<svg xmlns="http://www.w3.org/2000/svg" width="12.232" height="17" viewBox="0 0 12.232 17"><g transform="translate(-423 -88)"><path d="M31.529,4.631a3.058,3.058,0,1,1,6.116-.045V9.173h1.529V4.642A4.587,4.587,0,1,0,30,4.586V9.173h1.529Z" transform="translate(394.529 88.182)" fill="#333a40"/><path d="M10.952,130.7H1.279A1.279,1.279,0,0,1,0,129.423v-8.144A1.279,1.279,0,0,1,1.279,120h9.673a1.279,1.279,0,0,1,1.279,1.279v8.144a1.279,1.279,0,0,1-1.279,1.279" transform="translate(423 -25.703)" fill="#00aa57"/><rect width="2.299" height="10.703" transform="translate(423 94.297)" fill="none"/><path d="M93.058,181.529A1.529,1.529,0,1,1,91.529,180a1.529,1.529,0,0,1,1.529,1.529" transform="translate(337.587 -82.645)" fill="#333a40"/><rect width="2" height="3" transform="translate(428 99)" fill="#333a40"/><rect width="12" height="17" transform="translate(423 88)" fill="none"/></g></svg>