<svg xmlns="http://www.w3.org/2000/svg" width="32.677" height="31.167" viewBox="0 0 32.677 31.167"><path d="M159.575,11.637,149.717,10.2,145.3,1.269a.977.977,0,0,0-1.924,0L138.957,10.2,129.1,11.637a1.023,1.023,0,0,0-1.1.9,1.5,1.5,0,0,0,.491.943l7.148,6.952-1.689,9.819a3.041,3.041,0,0,0-.039.392,1.156,1.156,0,0,0,.207.7.715.715,0,0,0,.621.285,1.674,1.674,0,0,0,.786-.236l8.817-4.635,8.817,4.635a1.585,1.585,0,0,0,.786.236.694.694,0,0,0,.6-.285,1.156,1.156,0,0,0,.207-.7,3.1,3.1,0,0,0-.02-.392l-1.689-9.819,7.128-6.952a1.418,1.418,0,0,0,.51-.943,1.022,1.022,0,0,0-1.1-.9Z" transform="translate(-128 -0.463)" fill="#ffc400" fill-rule="evenodd"/></svg>