<?xml version="1.0" encoding="utf-8"?>
<!-- Generator: Adobe Illustrator 27.2.0, SVG Export Plug-In . SVG Version: 6.00 Build 0)  -->
<svg version="1.1" id="Calque_1" xmlns="http://www.w3.org/2000/svg" xmlns:xlink="http://www.w3.org/1999/xlink" x="0px" y="0px"
	 width="32.7px" height="31.2px" viewBox="0 0 32.7 31.2" style="enable-background:new 0 0 32.7 31.2;" xml:space="preserve">
<style type="text/css">
	.st0{fill:#FFC400;}
</style>
<g transform="translate(-668.151 -204.5)">
	<path class="st0" d="M684.5,207.9l-4.1,8.2l-9.1,1.3l6.6,6.4l-1.6,9l8.1-4.3l8.1,4.3l-1.6-9l6.6-6.4l-9.1-1.3L684.5,207.9
		 M684.5,204.5c0.5,0,0.9,0.3,1,0.8l4.4,8.9l9.9,1.4c0.5,0,1,0.4,1.1,0.9c0,0.4-0.2,0.7-0.5,0.9l-7.1,7l1.7,9.8c0,0.1,0,0.3,0,0.4
		c0,0.2-0.1,0.5-0.2,0.7c-0.1,0.2-0.4,0.3-0.6,0.3c-0.3,0-0.5-0.1-0.8-0.2l-8.8-4.6l-8.8,4.6c-0.2,0.1-0.5,0.2-0.8,0.2
		c-0.2,0-0.5-0.1-0.6-0.3c-0.1-0.2-0.2-0.5-0.2-0.7c0-0.1,0-0.3,0-0.4l1.7-9.8l-7.1-7c-0.3-0.2-0.4-0.6-0.5-0.9
		c0.1-0.5,0.6-0.9,1.1-0.9l9.9-1.4l4.4-8.9C683.6,204.8,684,204.5,684.5,204.5L684.5,204.5z"/>
</g>
</svg>
